<svg xmlns="http://www.w3.org/2000/svg" style="display: none;">

    <!-- Upload icon -->
    <symbol id="upload" viewBox="0 0 24 24" fill="none" stroke="currentColor">
        <path stroke-linecap="round" stroke-linejoin="round" stroke-width="2" d="M7 16a4 4 0 01-.88-7.903A5 5 0 1115.9 6L16 6a5 5 0 011 9.9M15 13l-3-3m0 0l-3 3m3-3v12" />
    </symbol>

    <!-- File icon -->
    <symbol id="file" viewBox="0 0 24 24" fill="none" stroke="currentColor">
        <path stroke-linecap="round" stroke-linejoin="round" stroke-width="2" d="M7 21h10a2 2 0 002-2V9.414a1 1 0 00-.293-.707l-5.414-5.414A1 1 0 0012.586 3H7a2 2 0 00-2 2v14a2 2 0 002 2z" />
    </symbol>

    <!-- Edit icon -->
    <symbol id="edit" viewBox="0 0 24 24" fill="none" stroke="currentColor">
        <path stroke-linecap="round" stroke-linejoin="round" stroke-width="2" d="M11 5H6a2 2 0 00-2 2v11a2 2 0 002 2h11a2 2 0 002-2v-5m-1.414-9.414a2 2 0 112.828 2.828L11.828 15H9v-2.828l8.586-8.586z" />
    </symbol>

    <!-- Delete icon -->
    <symbol id="delete" viewBox="0 0 24 24" fill="none" stroke="currentColor">
        <path stroke-linecap="round" stroke-linejoin="round" stroke-width="2" d="M19 7l-.867 12.142A2 2 0 0116.138 21H7.862a2 2 0 01-1.995-1.858L5 7m5 4v6m4-6v6m1-10V4a1 1 0 00-1-1h-4a1 1 0 00-1 1v3M4 7h16" />
    </symbol>

    <!-- Drag handle icon (3 horizontal lines) -->
    <symbol id="drag-handle" viewBox="0 0 24 24" fill="none" stroke="currentColor">
        <path stroke-linecap="round" stroke-linejoin="round" stroke-width="2" d="M4 6h16M4 12h16M4 18h16" />
    </symbol>

    <!-- Crop icon -->
    <symbol id="crop" viewBox="0 0 24 24" fill="none" stroke="currentColor">
        <path stroke-linecap="round" stroke-linejoin="round" stroke-width="2" d="M9 3H5a2 2 0 00-2 2v4m0 0v8a2 2 0 002 2h4m0 0h8a2 2 0 002-2v-4m0 0v-8a2 2 0 00-2-2h-4m-4 4h8v8H5V7z" />
    </symbol>

</svg>
